<?xml version="1.0"?>
<svg id="Layer_1" data-name="Layer 1" xmlns="http://www.w3.org/2000/svg" viewBox="0 0 492.57 566.91">
  <defs>
    
  </defs>
  <g id="vec_logo_gray" data-name="vec logo gray">
    <path class="cls-1" d="M243.29.8c.96-.55,2-.81,3.04-.8,1.02,0,2.04.27,2.96.8,0,0,18.02,10.41,18.02,10.41,2.86,1.65,3.85,5.32,2.19,8.19-1.65,2.87-5.32,3.85-8.19,2.19l-9.03-5.21v10.43c0,3.31-2.69,5.99-5.99,5.99s-5.99-2.69-5.99-5.99v-10.43l-9.03,5.21c-2.86,1.65-6.53.67-8.19-2.19-1.65-2.86-.67-6.53,2.19-8.19L243.29.8ZM252.28,75.36c0,3.31-2.69,5.99-5.99,5.99s-5.99-2.69-5.99-5.99v-20.81c0-3.31,2.69-5.99,5.99-5.99s5.99,2.69,5.99,5.99v20.81ZM285.34,35.46c-2.86-1.65-3.85-5.32-2.19-8.19,1.65-2.86,5.32-3.85,8.19-2.19l18.02,10.41c2.86,1.65,3.85,5.32,2.19,8.19-1.65,2.86-5.32,3.85-8.19,2.19l-18.02-10.4ZM201.24,25.08c2.87-1.65,6.53-.67,8.19,2.19,1.65,2.87.67,6.53-2.19,8.19l-18.02,10.4c-2.86,1.65-6.53.67-8.19-2.19-1.65-2.86-.67-6.53,2.19-8.19l18.02-10.41Z"></path>
    <path class="cls-1" d="M240.29,550.54v-10.43c0-3.31,2.69-5.99,5.99-5.99s5.99,2.69,5.99,5.99v10.43l9.03-5.21c2.86-1.65,6.53-.67,8.19,2.19,1.65,2.86.67,6.53-2.19,8.19,0,0-18.02,10.4-18.02,10.41-.92.53-1.94.8-2.96.8-1.03,0-2.08-.25-3.04-.8l-18.02-10.41c-2.86-1.65-3.85-5.32-2.19-8.19,1.65-2.87,5.32-3.85,8.19-2.19l9.03,5.21ZM240.29,491.55c0-3.31,2.69-5.99,5.99-5.99s5.99,2.69,5.99,5.99v20.81c0,3.31-2.69,5.99-5.99,5.99s-5.99-2.69-5.99-5.99v-20.81ZM291.33,541.83c-2.86,1.65-6.53.67-8.19-2.19-1.65-2.87-.67-6.53,2.19-8.19l18.02-10.4c2.86-1.65,6.53-.67,8.19,2.19,1.65,2.86.67,6.53-2.19,8.19l-18.02,10.41ZM207.23,531.45c2.86,1.65,3.85,5.32,2.19,8.19-1.65,2.86-5.32,3.85-8.19,2.19l-18.02-10.41c-2.86-1.65-3.85-5.32-2.19-8.19,1.65-2.86,5.32-3.85,8.19-2.19l18.02,10.4Z"></path>
    <path class="cls-1" d="M0,422.19v-20.81c0-3.31,2.69-5.99,5.99-5.99,3.31,0,5.99,2.69,5.99,5.99v10.43s9.03-5.21,9.03-5.21c2.87-1.65,6.53-.67,8.19,2.19,1.65,2.87.67,6.53-2.19,8.19l-9.03,5.21,9.03,5.21c2.87,1.65,3.85,5.32,2.19,8.19s-5.32,3.85-8.19,2.19l-18.02-10.4c-.9-.52-1.66-1.27-2.19-2.19C.27,424.27,0,423.23,0,422.19ZM69.06,451.68c2.86,1.65,3.85,5.32,2.19,8.19s-5.32,3.85-8.19,2.19l-18.02-10.4c-2.86-1.65-3.85-5.32-2.19-8.19s5.32-3.85,8.19-2.19l18.02,10.4ZM11.99,373.63c0,3.31-2.69,5.99-5.99,5.99-3.31,0-5.99-2.69-5.99-5.99v-20.81c0-3.31,2.69-5.99,5.99-5.99,3.31,0,5.99,2.69,5.99,5.99v20.81ZM51.04,403.1c-2.87,1.65-6.53.67-8.19-2.19-1.65-2.87-.67-6.53,2.19-8.19l18.02-10.4c2.86-1.65,6.53-.67,8.19,2.19,1.65,2.87.67,6.53-2.19,8.19l-18.02,10.41Z"></path>
    <path class="cls-1" d="M480.58,411.81v-10.43c0-3.31,2.69-5.99,5.99-5.99,3.31,0,5.99,2.69,5.99,5.99v20.81c0,1.04-.27,2.08-.8,3-.53.92-1.29,1.67-2.19,2.19l-18.02,10.4c-2.87,1.65-6.53.67-8.19-2.19s-.67-6.53,2.19-8.19l9.03-5.21-9.03-5.21c-2.86-1.65-3.85-5.32-2.19-8.19,1.65-2.86,5.32-3.85,8.19-2.19l9.03,5.21ZM429.5,462.06c-2.86,1.65-6.53.67-8.19-2.19s-.67-6.53,2.19-8.19l18.02-10.4c2.86-1.65,6.53-.67,8.19,2.19s.67,6.53-2.19,8.19l-18.02,10.4ZM492.57,373.63c0,3.31-2.69,5.99-5.99,5.99-3.31,0-5.99-2.69-5.99-5.99v-20.81c0-3.31,2.69-5.99,5.99-5.99,3.31,0,5.99,2.69,5.99,5.99v20.81ZM447.52,392.72c2.86,1.65,3.85,5.32,2.19,8.19-1.65,2.87-5.32,3.85-8.19,2.19l-18.02-10.41c-2.87-1.65-3.85-5.32-2.19-8.19,1.65-2.87,5.32-3.85,8.19-2.19l18.02,10.4Z"></path>
    <path class="cls-1" d="M489.57,139.53c.9.52,1.66,1.27,2.19,2.19.53.92.8,1.95.8,3v20.81c0,3.31-2.69,5.99-5.99,5.99-3.31,0-5.99-2.69-5.99-5.99v-10.43s-9.03,5.21-9.03,5.21c-2.87,1.65-6.53.67-8.19-2.19-1.65-2.87-.67-6.53,2.19-8.19l9.03-5.21-9.03-5.21c-2.87-1.65-3.85-5.32-2.19-8.19s5.32-3.85,8.19-2.19l18.02,10.4ZM423.5,115.23c-2.86-1.65-3.85-5.32-2.19-8.19s5.32-3.85,8.19-2.19l18.02,10.4c2.86,1.65,3.85,5.32,2.19,8.19s-5.32,3.85-8.19,2.19l-18.02-10.4ZM480.58,193.28c0-3.31,2.69-5.99,5.99-5.99,3.31,0,5.99,2.69,5.99,5.99v20.81c0,3.31-2.69,5.99-5.99,5.99-3.31,0-5.99-2.69-5.99-5.99v-20.81ZM441.53,163.81c2.87-1.65,6.53-.67,8.19,2.19,1.65,2.87.67,6.53-2.19,8.19l-18.02,10.4c-2.86,1.65-6.53.67-8.19-2.19-1.65-2.87-.67-6.53,2.19-8.19l18.02-10.41Z"></path>
    <path class="cls-1" d="M3,139.53l18.02-10.4c2.87-1.65,6.53-.67,8.19,2.19s.67,6.53-2.19,8.19l-9.03,5.21,9.03,5.21c2.86,1.65,3.85,5.32,2.19,8.19-1.65,2.86-5.32,3.85-8.19,2.19l-9.03-5.21v10.43c0,3.31-2.69,5.99-5.99,5.99-3.31,0-5.99-2.69-5.99-5.99v-20.81c0-1.04.27-2.08.8-3,.53-.92,1.29-1.67,2.19-2.19ZM63.07,104.85c2.86-1.65,6.53-.67,8.19,2.19s.67,6.53-2.19,8.19l-18.02,10.4c-2.86,1.65-6.53.67-8.19-2.19s-.67-6.53,2.19-8.19l18.02-10.4ZM0,193.28c0-3.31,2.69-5.99,5.99-5.99,3.31,0,5.99,2.69,5.99,5.99v20.81c0,3.31-2.69,5.99-5.99,5.99-3.31,0-5.99-2.69-5.99-5.99v-20.81ZM45.05,174.19c-2.86-1.65-3.85-5.32-2.19-8.19,1.65-2.87,5.32-3.85,8.19-2.19l18.02,10.41c2.87,1.65,3.85,5.32,2.19,8.19-1.65,2.87-5.32,3.85-8.19,2.19l-18.02-10.4Z"></path>
  </g>
</svg>